<svg width="121" height="38" viewBox="0 0 121 38" fill="none" xmlns="http://www.w3.org/2000/svg">
<path d="M51.7356 16.8693H47.4742C47.4174 16.4318 47.3009 16.0369 47.1248 15.6847C46.9486 15.3324 46.7157 15.0312 46.4259 14.7812C46.1361 14.5312 45.7924 14.3409 45.3947 14.2102C45.0026 14.0739 44.568 14.0057 44.0907 14.0057C43.2441 14.0057 42.514 14.2131 41.9003 14.6278C41.2924 15.0426 40.8236 15.642 40.4941 16.4261C40.1702 17.2102 40.0083 18.1591 40.0083 19.2727C40.0083 20.4318 40.1731 21.4034 40.5026 22.1875C40.8378 22.9659 41.3066 23.554 41.9089 23.9517C42.5168 24.3437 43.2356 24.5398 44.0651 24.5398C44.531 24.5398 44.9543 24.4801 45.335 24.3608C45.7214 24.2415 46.0594 24.0682 46.3492 23.8409C46.6447 23.608 46.8861 23.3267 47.0736 22.9972C47.2668 22.6619 47.4003 22.2841 47.4742 21.8636L51.7356 21.8892C51.6617 22.6619 51.4373 23.4233 51.0623 24.1733C50.693 24.9233 50.1844 25.608 49.5367 26.2273C48.889 26.8409 48.0992 27.3295 47.1674 27.6932C46.2413 28.0568 45.1788 28.2386 43.9799 28.2386C42.4003 28.2386 40.9856 27.892 39.7356 27.1989C38.4913 26.5 37.5083 25.483 36.7867 24.1477C36.0651 22.8125 35.7043 21.1875 35.7043 19.2727C35.7043 17.3523 36.0708 15.7244 36.8038 14.3892C37.5367 13.054 38.5282 12.0398 39.7782 11.3466C41.0282 10.6534 42.4288 10.3068 43.9799 10.3068C45.0367 10.3068 46.014 10.4545 46.9117 10.75C47.8094 11.0398 48.5992 11.4659 49.281 12.0284C49.9628 12.5852 50.5168 13.2699 50.943 14.0824C51.3691 14.8949 51.6333 15.8239 51.7356 16.8693ZM54.1496 28V10.5455H61.3599C62.6667 10.5455 63.7945 10.7812 64.7434 11.2528C65.6979 11.7187 66.4337 12.3892 66.9508 13.2642C67.4678 14.1335 67.7263 15.1648 67.7263 16.358C67.7263 17.5682 67.4621 18.5966 66.9337 19.4432C66.4053 20.2841 65.6553 20.9261 64.6837 21.3693C63.7121 21.8068 62.5616 22.0256 61.232 22.0256H56.6724V18.7017H60.4479C61.0843 18.7017 61.6155 18.6193 62.0417 18.4545C62.4735 18.2841 62.8002 18.0284 63.0218 17.6875C63.2434 17.3409 63.3542 16.8977 63.3542 16.358C63.3542 15.8182 63.2434 15.3722 63.0218 15.0199C62.8002 14.6619 62.4735 14.3949 62.0417 14.2188C61.6099 14.0369 61.0786 13.946 60.4479 13.946H58.3684V28H54.1496ZM63.9763 20.0227L68.3229 28H63.7207L59.4593 20.0227H63.9763ZM80.5999 10.5455H84.8101V21.804C84.8101 23.1051 84.5005 24.2386 83.8812 25.2045C83.2619 26.1648 82.3982 26.9091 81.2903 27.4375C80.1823 27.9602 78.8954 28.2216 77.4295 28.2216C75.9465 28.2216 74.6511 27.9602 73.5431 27.4375C72.4351 26.9091 71.5744 26.1648 70.9607 25.2045C70.3471 24.2386 70.0403 23.1051 70.0403 21.804V10.5455H74.259V21.4375C74.259 22.0398 74.3897 22.5767 74.6511 23.0483C74.9181 23.5199 75.2903 23.8892 75.7675 24.1562C76.2448 24.4233 76.7988 24.5568 77.4295 24.5568C78.0601 24.5568 78.6113 24.4233 79.0829 24.1562C79.5601 23.8892 79.9323 23.5199 80.1994 23.0483C80.4664 22.5767 80.5999 22.0398 80.5999 21.4375V10.5455ZM91.7242 10.5455L94.9117 16.0597H95.0481L98.2697 10.5455H102.991L97.7242 19.2727L103.162 28H98.3208L95.0481 22.4261H94.9117L91.639 28H86.8322L92.2441 19.2727L86.9685 10.5455H91.7242Z" fill="white"/>
<path d="M14.5588 32.7114C14.5604 32.9742 14.6656 33.2257 14.8514 33.4115C15.0371 33.5973 15.2887 33.7024 15.5515 33.704L17.3897 33.704C17.6387 33.7236 17.8712 33.8364 18.0408 34.0198C18.2103 34.2033 18.3044 34.4438 18.3044 34.6936C18.3044 34.9434 18.2103 35.184 18.0408 35.3674C17.8712 35.5508 17.6387 35.6636 17.3897 35.6832L17.5123 35.6832C17.249 35.6832 16.9965 35.7878 16.8104 35.9739C16.6242 36.1601 16.5196 36.4126 16.5196 36.6758C16.5196 36.9391 16.6242 37.1916 16.8104 37.3777C16.9965 37.5639 17.249 37.6685 17.5123 37.6685L33.8174 37.6685C34.0807 37.6685 34.3331 37.5639 34.5193 37.3777C34.7055 37.1916 34.81 36.9391 34.81 36.6758C34.81 36.4126 34.7055 36.1601 34.5193 35.9739C34.3331 35.7878 34.0807 35.6832 33.8174 35.6832L28.6458 35.6832C28.5094 35.6939 28.3721 35.6763 28.2427 35.6314C28.1134 35.5866 27.9947 35.5155 27.8941 35.4226C27.7936 35.3296 27.7134 35.2169 27.6585 35.0914C27.6036 34.9659 27.5752 34.8305 27.5752 34.6936C27.5752 34.5567 27.6036 34.4212 27.6585 34.2958C27.7134 34.1704 27.7936 34.0576 27.8941 33.9647C27.9947 33.8717 28.1134 33.8006 28.2427 33.7557C28.3721 33.7109 28.5094 33.6933 28.6458 33.704L31.8321 33.704C32.0954 33.704 32.3478 33.5995 32.534 33.4133C32.7201 33.2271 32.8247 32.9747 32.8247 32.7114C32.8247 32.4481 32.7201 32.1956 32.534 32.0095C32.3478 31.8233 32.0954 31.7187 31.8321 31.7187L15.5392 31.7187C15.2781 31.722 15.0288 31.8279 14.8452 32.0137C14.6617 32.1995 14.5588 32.4502 14.5588 32.7114ZM26.2684 34.6905C26.2692 34.8211 26.2441 34.9506 26.1945 35.0713C26.1449 35.1922 26.0718 35.3019 25.9795 35.3943C25.8871 35.4866 25.7774 35.5597 25.6566 35.6093C25.5358 35.6588 25.4063 35.684 25.2757 35.6832L20.8027 35.6832C20.6662 35.6939 20.5289 35.6763 20.3996 35.6314C20.2702 35.5866 20.1515 35.5155 20.051 35.4226C19.9504 35.3296 19.8702 35.2169 19.8153 35.0914C19.7605 34.9659 19.7321 34.8305 19.7321 34.6936C19.7321 34.5567 19.7605 34.4212 19.8153 34.2958C19.8702 34.1704 19.9504 34.0576 20.051 33.9647C20.1515 33.8717 20.2702 33.8006 20.3996 33.7557C20.5289 33.7109 20.6662 33.6933 20.8027 33.704L25.2757 33.704C25.4058 33.7032 25.5347 33.7281 25.6551 33.7773C25.7756 33.8266 25.885 33.8991 25.9773 33.9908C26.0695 34.0825 26.1428 34.1915 26.1927 34.3115C26.2427 34.4316 26.2684 34.5604 26.2684 34.6905Z" fill="white"/>
<path d="M6.34811 24.7825C6.34811 24.912 6.37366 25.0402 6.42323 25.16C6.4728 25.2796 6.54547 25.3884 6.63708 25.48C6.72868 25.5716 6.83744 25.6443 6.95711 25.6939C7.07678 25.7434 7.20509 25.769 7.33462 25.769L20.3432 25.769C20.6065 25.769 20.8589 25.8735 21.0451 26.0597C21.2313 26.2459 21.3358 26.4983 21.3358 26.7616C21.3358 27.0249 21.2313 27.2774 21.0451 27.4635C20.8589 27.6497 20.6065 27.7542 20.3432 27.7542L10.3739 27.7542C10.2374 27.7435 10.1001 27.7611 9.97077 27.806C9.84136 27.8508 9.72267 27.9219 9.62212 28.0149C9.52157 28.1078 9.44136 28.2206 9.38646 28.346C9.33162 28.4714 9.30331 28.6069 9.30331 28.7438C9.30331 28.8807 9.33162 29.0162 9.38646 29.1416C9.44136 29.2671 9.52157 29.3798 9.62212 29.4728C9.72267 29.5657 9.84136 29.6369 9.97077 29.6817C10.1001 29.7266 10.2374 29.7442 10.3739 29.7334L26.679 29.7334C26.8155 29.7442 26.9527 29.7266 27.0821 29.6817C27.2115 29.6369 27.3301 29.5657 27.4307 29.4728C27.5312 29.3798 27.6115 29.2671 27.6664 29.1416C27.7212 29.0162 27.7495 28.8807 27.7495 28.7438C27.7495 28.6069 27.7212 28.4714 27.6664 28.346C27.6115 28.2206 27.5312 28.1078 27.4307 28.0149C27.3301 27.9219 27.2115 27.8508 27.0821 27.806C26.9527 27.7611 26.8155 27.7435 26.679 27.7542L23.7072 27.7542C23.4439 27.7542 23.1914 27.6497 23.0053 27.4635C22.8191 27.2774 22.7145 27.0249 22.7145 26.7616C22.7145 26.4983 22.8191 26.2459 23.0053 26.0597C23.1914 25.8735 23.4439 25.769 23.7072 25.769L23.6152 25.769C23.8643 25.7494 24.0967 25.6366 24.2663 25.4532C24.4358 25.2697 24.53 25.0291 24.53 24.7794C24.53 24.5296 24.4358 24.289 24.2663 24.1056C24.0967 23.9222 23.8643 23.8094 23.6152 23.7898L7.30399 23.7898C7.04663 23.7978 6.80264 23.906 6.62402 24.0915C6.44541 24.277 6.34639 24.525 6.34811 24.7825Z" fill="white"/>
<path d="M-2.16815e-07 16.8536C-2.05306e-07 17.1169 0.104594 17.3693 0.290746 17.5555C0.476898 17.7416 0.729349 17.8462 0.992645 17.8462L3.73774 17.8462C4.00097 17.8462 4.25349 17.9508 4.43964 18.137C4.62579 18.3231 4.73039 18.5756 4.73039 18.8389C4.73039 19.1022 4.62579 19.3546 4.43964 19.5408C4.25349 19.7269 4.00097 19.8315 3.73774 19.8315L3.22303 19.8315C2.97401 19.8511 2.74154 19.9639 2.57199 20.1473C2.40245 20.3307 2.30833 20.5713 2.30833 20.8211C2.30833 21.0708 2.40245 21.3115 2.57199 21.4949C2.74154 21.6783 2.97401 21.7911 3.22303 21.8107L19.5282 21.8107C19.6647 21.8214 19.8019 21.8038 19.9313 21.759C20.0606 21.7141 20.1793 21.643 20.2799 21.55C20.3804 21.4571 20.4606 21.3444 20.5155 21.2189C20.5704 21.0935 20.5987 20.958 20.5987 20.8211C20.5987 20.6841 20.5704 20.5487 20.5155 20.4233C20.4606 20.2978 20.3804 20.1851 20.2799 20.0922C20.1793 19.9992 20.0606 19.9281 19.9313 19.8832C19.8019 19.8384 19.6647 19.8208 19.5282 19.8315L7.12622 19.8315C6.86292 19.8315 6.61047 19.7269 6.42432 19.5408C6.23817 19.3546 6.13357 19.1022 6.13357 18.8389C6.13357 18.5756 6.23817 18.3231 6.42432 18.137C6.61047 17.9508 6.86292 17.8462 7.12622 17.8462L17.2978 17.8462C17.561 17.8462 17.8135 17.7416 17.9997 17.5555C18.1858 17.3693 18.2904 17.1169 18.2904 16.8536C18.2904 16.5903 18.1858 16.3378 17.9997 16.1517C17.8135 15.9655 17.561 15.8609 17.2978 15.8609L0.992645 15.8609C0.7299 15.8626 0.478309 15.9676 0.292525 16.1534C0.10668 16.3392 0.00159291 16.5908 -2.16815e-07 16.8536Z" fill="white"/>
<path d="M16.3909 0.995764C16.3926 1.25796 16.4979 1.50888 16.6838 1.69368C16.8698 1.87854 17.1214 1.98228 17.3836 1.98222L18.799 1.98222C19.0623 1.98222 19.3148 2.08681 19.5009 2.27297C19.6871 2.45912 19.7917 2.71163 19.7917 2.97486C19.7917 3.23816 19.6871 3.49061 19.5009 3.67682C19.3148 3.86298 19.0623 3.96751 18.799 3.96751L14.8101 3.96751C14.5468 3.96751 14.2943 4.07211 14.1082 4.25826C13.922 4.44441 13.8174 4.69692 13.8174 4.96016C13.8174 5.22346 13.922 5.47591 14.1082 5.66206C14.2943 5.84827 14.5468 5.9528 14.8101 5.9528L23.3333 5.9528C23.5824 5.97241 23.8148 6.08522 23.9843 6.26861C24.1539 6.45207 24.248 6.69263 24.248 6.94245C24.248 7.1922 24.1539 7.43276 23.9843 7.61622C23.8148 7.79961 23.5824 7.91242 23.3333 7.93203L10.2941 7.93203C10.0309 7.93203 9.7784 8.03656 9.59224 8.22278C9.40609 8.40893 9.3015 8.66138 9.3015 8.92467C9.3015 9.18791 9.40609 9.44042 9.59224 9.62657C9.7784 9.81272 10.0309 9.91732 10.2941 9.91732L19.3934 9.91732C19.5299 9.90653 19.6672 9.92418 19.7965 9.96904C19.9259 10.0139 20.0446 10.085 20.1451 10.1779C20.2457 10.2709 20.3259 10.3836 20.3808 10.509C20.4357 10.6345 20.464 10.77 20.464 10.9069C20.464 11.0438 20.4357 11.1793 20.3808 11.3047C20.3259 11.4301 20.2457 11.5429 20.1451 11.6358C20.0446 11.7288 19.9259 11.7999 19.7965 11.8447C19.6672 11.8896 19.5299 11.9072 19.3934 11.8964L6.4216 11.8964C6.15837 11.8964 5.90585 12.001 5.7197 12.1872C5.53355 12.3733 5.42896 12.6258 5.42896 12.8891C5.42896 13.1524 5.53355 13.4048 5.7197 13.591C5.90585 13.7772 6.15837 13.8817 6.4216 13.8817L22.7267 13.8817C22.99 13.8817 23.2425 13.7772 23.4286 13.591C23.6148 13.4048 23.7194 13.1524 23.7194 12.8891C23.7194 12.6258 23.6148 12.3733 23.4286 12.1872C23.2425 12.001 22.99 11.8964 22.7267 11.8964L22.7819 11.8964C22.5329 11.8768 22.3004 11.7641 22.1308 11.5807C21.9613 11.3972 21.8672 11.1567 21.8672 10.9069C21.8672 10.6571 21.9613 10.4165 22.1308 10.2331C22.3004 10.0497 22.5329 9.93693 22.7819 9.91732L26.5993 9.91732C26.8625 9.91732 27.115 9.81272 27.3012 9.62657C27.4873 9.44042 27.5919 9.18791 27.5919 8.92467C27.5919 8.66137 27.4873 8.40893 27.3012 8.22278C27.115 8.03656 26.8625 7.93203 26.5993 7.93203L26.7218 7.93203C26.5853 7.94275 26.448 7.92516 26.3187 7.88031C26.1893 7.83546 26.0707 7.76426 25.9701 7.67137C25.8696 7.57841 25.7893 7.46567 25.7344 7.34024C25.6796 7.21481 25.6512 7.07933 25.6512 6.94245C25.6512 6.8055 25.6796 6.67008 25.7344 6.54459C25.7893 6.41916 25.8696 6.30642 25.9701 6.21346C26.0707 6.12057 26.1893 6.04937 26.3187 6.00452C26.448 5.95967 26.5853 5.94208 26.7218 5.9528L31.1152 5.9528C31.3785 5.9528 31.6309 5.84827 31.8171 5.66206C32.0032 5.47591 32.1078 5.22345 32.1078 4.96016C32.1078 4.69692 32.0032 4.44441 31.8171 4.25826C31.6309 4.07211 31.3785 3.96751 31.1152 3.96751L22.1936 3.96751C21.9303 3.96751 21.6779 3.86298 21.4917 3.67682C21.3056 3.49061 21.201 3.23816 21.201 2.97486C21.201 2.71163 21.3056 2.45912 21.4917 2.27297C21.6779 2.08681 21.9303 1.98222 22.1936 1.98222L33.6887 1.98222C33.8252 1.99301 33.9625 1.97536 34.0918 1.9305C34.2212 1.88565 34.3399 1.81457 34.4404 1.72162C34.541 1.62867 34.6212 1.51592 34.6761 1.39049C34.7309 1.26506 34.7593 1.12958 34.7593 0.992697C34.7593 0.855748 34.7309 0.720332 34.6761 0.594842C34.6212 0.469413 34.541 0.35667 34.4404 0.263717C34.3399 0.170763 34.2212 0.0996262 34.0918 0.0547733C33.9625 0.00992046 33.8252 -0.00766824 33.6887 0.00311607L17.3775 0.00311678C17.1153 0.00470992 16.8644 0.109978 16.6795 0.295946C16.4947 0.481975 16.3909 0.73351 16.3909 0.995764Z" fill="white"/>
</svg>
